<?xml version="1.0" ?><!DOCTYPE svg  PUBLIC '-//W3C//DTD SVG 1.1//EN'  'http://www.w3.org/Graphics/SVG/1.1/DTD/svg11.dtd'><svg height="21.409px" id="Capa_1" style="enable-background:new 0 0 21.072 21.409;" version="1.1" viewBox="0 0 21.072 21.409" width="21.072px" xml:space="preserve" xmlns="http://www.w3.org/2000/svg" xmlns:xlink="http://www.w3.org/1999/xlink"><path d="M10.536,0c5.818,0,10.536,4.793,10.536,10.705  c0,5.911-4.718,10.704-10.536,10.704C4.719,21.409,0,16.615,0,10.705C0,4.793,4.719,0,10.536,0L10.536,0z M19.129,6.726h-3.272  c0.223,1.037,0.361,2.153,0.398,3.32h3.7C19.877,8.868,19.589,7.749,19.129,6.726L19.129,6.726z M15.209,6.726h-3.932v3.32h4.381  C15.615,8.868,15.459,7.749,15.209,6.726L15.209,6.726z M9.948,6.726H5.864c-0.25,1.023-0.407,2.143-0.449,3.32h4.533V6.726  L9.948,6.726z M5.216,6.726H1.944c-0.46,1.023-0.748,2.143-0.827,3.32h3.7C4.855,8.879,4.994,7.762,5.216,6.726L5.216,6.726z   M2.673,5.396h2.888c0.472-1.541,1.143-2.841,1.947-3.779C5.514,2.303,3.818,3.647,2.673,5.396L2.673,5.396z M6.261,5.396h3.688  V1.176C8.409,1.504,7.078,3.103,6.261,5.396L6.261,5.396z M11.277,5.396h3.535c-0.79-2.218-2.062-3.786-3.535-4.184V5.396  L11.277,5.396z M15.513,5.396H18.4c-1.146-1.749-2.842-3.093-4.836-3.779C14.369,2.555,15.04,3.856,15.513,5.396L15.513,5.396z   M19.955,11.375h-3.7c-0.039,1.169-0.178,2.287-0.402,3.325h3.269C19.584,13.676,19.874,12.555,19.955,11.375L19.955,11.375z   M15.658,11.375h-4.381V14.7h3.928C15.456,13.676,15.614,12.555,15.658,11.375L15.658,11.375z M9.948,11.375H5.415  c0.044,1.18,0.202,2.301,0.453,3.325h4.08V11.375L9.948,11.375z M4.818,11.375h-3.7c0.08,1.18,0.371,2.301,0.834,3.325H5.22  C4.996,13.663,4.856,12.544,4.818,11.375L4.818,11.375z M11.277,16.029v4.167c1.47-0.397,2.738-1.958,3.529-4.167H11.277  L11.277,16.029z M9.948,20.233v-4.204H6.267C7.084,18.314,8.413,19.906,9.948,20.233L9.948,20.233z M18.39,16.029h-2.883  c-0.472,1.533-1.141,2.828-1.942,3.763C15.553,19.108,17.243,17.77,18.39,16.029L18.39,16.029z M5.565,16.029H2.684  c1.146,1.74,2.837,3.079,4.824,3.763C6.706,18.857,6.037,17.562,5.565,16.029z" style="fill-rule:evenodd;clip-rule:evenodd;fill:#FFFFFF;"/><g/><g/><g/><g/><g/><g/><g/><g/><g/><g/><g/><g/><g/><g/><g/></svg>