<?xml version="1.0" encoding="utf-8"?>
<!-- Generator: Adobe Illustrator 19.2.0, SVG Export Plug-In . SVG Version: 6.00 Build 0)  -->
<svg version="1.1" id="Layer_1" xmlns="http://www.w3.org/2000/svg" xmlns:xlink="http://www.w3.org/1999/xlink" x="0px" y="0px"
	 viewBox="0 0 500 500" style="enable-background:new 0 0 500 500;" xml:space="preserve">
<style type="text/css">
	.st0{fill:#FFFFFF;}
	.st1{stroke:#000101;stroke-width:1.2691;stroke-miterlimit:10;}
	.st2{fill:none;stroke:#FFFFFF;stroke-width:15.2912;stroke-linecap:round;stroke-linejoin:round;stroke-miterlimit:10;}
	.st3{fill:none;stroke:#D185B8;stroke-width:16;stroke-linecap:round;stroke-linejoin:round;stroke-miterlimit:10;}
	.st4{fill:#D084B4;stroke:#D185B8;stroke-width:0.9078;stroke-linecap:round;stroke-linejoin:round;stroke-miterlimit:10;}
	.st5{fill:none;stroke:#000000;stroke-width:28.801;stroke-linecap:round;stroke-linejoin:round;stroke-miterlimit:10;}
	.st6{stroke:#000000;stroke-width:2;stroke-linecap:round;stroke-linejoin:round;stroke-miterlimit:10;}
</style>
<rect width="500" height="500"/>
<g>
	<path class="st0" d="M314.3,273.7H136.6v147.4c0,16.6,13.5,30.1,30.1,30.1h162.9c16.6,0,30.1-13.5,30.1-30.1V319.1
		C359.6,294,339.4,273.7,314.3,273.7z"/>
	<circle cx="201.9" cy="342.9" r="25.8"/>
	<circle class="st1" cx="292.7" cy="342.9" r="25.8"/>
	<line class="st2" x1="319.5" y1="313.3" x2="341.2" y2="313.3"/>
	<path class="st3" d="M267,282.3"/>
	<path class="st4" d="M201.9,333.5"/>
	<path class="st5" d="M189.5,259.4"/>
	<path class="st6" d="M248.1,409c-5.8,4.5-14.3,9.1-26.7,12.7c-24,6.9-35.3-5.5-40.3-14.8c-1.3-2.5,1.2-5.2,3.8-4.2
		c6.7,2.8,17.5,3.9,30.5-7.7c22-19.6,24-7.8,32.1-8h1.2c8,0.2,10.1-11.7,32.1,8c13,11.6,23.9,10.6,30.5,7.7c2.6-1.1,5.1,1.7,3.8,4.2
		c-4.9,9.3-16.2,21.7-40.3,14.8C262.1,418.1,253.9,413.7,248.1,409L248.1,409z"/>
	<g>
		<path d="M377.8,274.9l-29.3-8L382,143.6c5.5-20.2-6.4-41.1-26.6-46.6L248.9,68c-20.2-5.5-41.1,6.4-46.6,26.6L168.8,218l-29.3-8
			c-13.1-3.6-26.7,4.2-30.3,17.3l-4.3,15.8c-3.6,13.1,4.2,26.7,17.3,30.3l238.4,64.9c13.1,3.6,26.7-4.2,30.3-17.3l4.3-15.8
			C398.7,292,390.9,278.5,377.8,274.9z"/>
		<path class="st0" d="M367.1,355.1c-3.6,0-7.2-0.5-10.7-1.4L118,288.7c-21.6-5.9-34.4-28.2-28.5-49.8l4.3-15.8
			c5.9-21.6,28.2-34.4,49.8-28.5l14,3.8L187,90.5c7.8-28.7,37.5-45.6,66.2-37.8l106.5,29c13.9,3.8,25.5,12.7,32.6,25.2
			c7.1,12.5,9,27,5.2,40.9L368,255.7l14,3.8c21.6,5.9,34.4,28.2,28.5,49.8l-4.3,15.8c-2.8,10.5-9.6,19.2-19,24.6
			C381,353.3,374.1,355.1,367.1,355.1z M133,225.1c-3.8,0-7.4,2.6-8.4,6.4l-4.3,15.8c-1.3,4.6,1.5,9.4,6.1,10.7l238.4,64.9
			c2.4,0.7,5,0.3,7.1-1.1c1.8-1.2,3.1-3.1,3.7-5.3l4.2-15.5c1.3-4.6-1.5-9.4-6.1-10.7l-27.5-7.5c-9.5-2.6-15.1-12.4-12.5-21.9
			l33.1-121.5c1.5-5.7,0.8-11.6-2.1-16.7c-2.9-5.1-7.6-8.8-13.3-10.3l-106.5-29c-11.7-3.2-23.8,3.7-27,15.4l-33.1,121.5
			c-2.6,9.5-12.4,15.1-21.9,12.5l-27.5-7.5C134.5,225.2,133.7,225.1,133,225.1z"/>
	</g>
</g>
</svg>
