<svg xmlns="http://www.w3.org/2000/svg" viewBox="0 0 500 500"><style>.st0{fill:#FFF;} .st1{fill:none;stroke:#FFFFFF;stroke-width:15.2912;stroke-linecap:round;stroke-linejoin:round;stroke-miterlimit:10;} .st2{fill:none;stroke:#D185B8;stroke-width:16;stroke-linecap:round;stroke-linejoin:round;stroke-miterlimit:10;} .st3{fill:#D084B4;stroke:#D185B8;stroke-width:0.9078;stroke-linecap:round;stroke-linejoin:round;stroke-miterlimit:10;} .st4{fill:none;stroke:#000000;stroke-width:28.801;stroke-linecap:round;stroke-linejoin:round;stroke-miterlimit:10;}</style><path fill="transparent" d="M0 0h500v500H0z"/><path d="M314.3 273.7H136.6v147.4c0 16.6 13.5 30.1 30.1 30.1h162.9c16.6 0 30.1-13.5 30.1-30.1v-102c-.1-25.1-20.3-45.4-45.4-45.4z"/><circle class="st0" cx="201.9" cy="342.9" r="25.8"/><circle class="st0" cx="292.7" cy="342.9" r="25.8"/><path class="st1" d="M319.5 313.3h21.7"/><path class="st0" d="M248.1 409c-5.8 4.5-14.3 9.1-26.7 12.7-24 6.9-35.3-5.5-40.3-14.8-1.3-2.5 1.2-5.2 3.8-4.2 6.7 2.8 17.5 3.9 30.5-7.7 22-19.6 24-7.8 32.1-8h1.2c8 .2 10.1-11.7 32.1 8 13 11.6 23.9 10.6 30.5 7.7 2.6-1.1 5.1 1.7 3.8 4.2-4.9 9.3-16.2 21.7-40.3 14.8-12.7-3.6-20.9-8-26.7-12.7zM377.8 274.9l-29.3-8L382 143.6c5.5-20.2-6.4-41.1-26.6-46.6L248.9 68c-20.2-5.5-41.1 6.4-46.6 26.6L168.8 218l-29.3-8c-13.1-3.6-26.7 4.2-30.3 17.3l-4.3 15.8c-3.6 13.1 4.2 26.7 17.3 30.3l238.4 64.9c13.1 3.6 26.7-4.2 30.3-17.3l4.3-15.8c3.5-13.2-4.3-26.7-17.4-30.3z"/><path d="M367.1 355.1c-3.6 0-7.2-.5-10.7-1.4l-238.4-65c-21.6-5.9-34.4-28.2-28.5-49.8l4.3-15.8c5.9-21.6 28.2-34.4 49.8-28.5l14 3.8L187 90.5c7.8-28.7 37.5-45.6 66.2-37.8l106.5 29c13.9 3.8 25.5 12.7 32.6 25.2 7.1 12.5 9 27 5.2 40.9L368 255.7l14 3.8c21.6 5.9 34.4 28.2 28.5 49.8l-4.3 15.8c-2.8 10.5-9.6 19.2-19 24.6-6.2 3.6-13.1 5.4-20.1 5.4zM133 225.1c-3.8 0-7.4 2.6-8.4 6.4l-4.3 15.8c-1.3 4.6 1.5 9.4 6.1 10.7l238.4 64.9c2.4.7 5 .3 7.1-1.1 1.8-1.2 3.1-3.1 3.7-5.3l4.2-15.5c1.3-4.6-1.5-9.4-6.1-10.7l-27.5-7.5c-9.5-2.6-15.1-12.4-12.5-21.9l33.1-121.5c1.5-5.7.8-11.6-2.1-16.7-2.9-5.1-7.6-8.8-13.3-10.3l-106.5-29c-11.7-3.2-23.8 3.7-27 15.4l-33.1 121.5c-2.6 9.5-12.4 15.1-21.9 12.5l-27.5-7.5c-.9-.1-1.7-.2-2.4-.2z"/></svg>
